<svg width="180" height="48" viewBox="164 104 60 16" fill="none" xmlns="http://www.w3.org/2000/svg">
<path d="M165.12 108.32H166.32V109.648C167.077 108.603 168.197 108.08 169.68 108.08C170.437 108.08 171.12 108.251 171.728 108.592C172.336 108.933 172.816 109.413 173.168 110.032C173.52 110.651 173.696 111.365 173.696 112.176C173.696 112.976 173.52 113.685 173.168 114.304C172.827 114.923 172.347 115.403 171.728 115.744C171.12 116.075 170.437 116.24 169.68 116.24C168.987 116.24 168.341 116.112 167.744 115.856C167.147 115.589 166.683 115.205 166.352 114.704V119.504H165.12V108.32ZM169.424 115.264C170 115.264 170.517 115.136 170.976 114.88C171.445 114.624 171.808 114.267 172.064 113.808C172.331 113.339 172.464 112.795 172.464 112.176C172.464 111.568 172.331 111.029 172.064 110.56C171.808 110.08 171.445 109.712 170.976 109.456C170.517 109.2 170 109.072 169.424 109.072C168.699 109.072 168.059 109.264 167.504 109.648C166.96 110.021 166.576 110.539 166.352 111.2V113.104C166.555 113.755 166.933 114.277 167.488 114.672C168.053 115.067 168.699 115.264 169.424 115.264ZM181.38 104.176H182.612V116H181.38V104.176ZM193.297 116.24C192.369 116.24 191.633 116.011 191.089 115.552C190.555 115.083 190.289 114.443 190.289 113.632C190.289 112.789 190.55 112.144 191.073 111.696C191.595 111.237 192.353 111.008 193.345 111.008C194.454 111.008 195.409 111.237 196.209 111.696V111.12C196.209 110.427 196.011 109.915 195.617 109.584C195.222 109.243 194.598 109.072 193.745 109.072C192.838 109.072 192.001 109.243 191.233 109.584V108.544C191.553 108.405 191.958 108.293 192.449 108.208C192.939 108.123 193.409 108.08 193.857 108.08C195.073 108.08 195.974 108.357 196.561 108.912C197.147 109.456 197.441 110.213 197.441 111.184V116H196.289V115.008C195.617 115.829 194.619 116.24 193.297 116.24ZM193.601 115.232C194.177 115.232 194.694 115.12 195.153 114.896C195.622 114.661 195.974 114.336 196.209 113.92V112.688C195.793 112.443 195.377 112.267 194.961 112.16C194.555 112.043 194.097 111.984 193.585 111.984C192.859 111.984 192.331 112.123 192.001 112.4C191.681 112.667 191.521 113.077 191.521 113.632C191.521 114.699 192.214 115.232 193.601 115.232ZM207.795 116.24C207.07 116.24 206.504 116.027 206.099 115.6C205.704 115.173 205.507 114.565 205.507 113.776V109.28H204.307V108.32H205.507V106.016H206.739V108.32H208.675V109.28H206.739V113.808C206.739 114.341 206.846 114.72 207.059 114.944C207.272 115.157 207.662 115.264 208.227 115.264C208.504 115.264 208.798 115.2 209.107 115.072V116.08C208.755 116.187 208.318 116.24 207.795 116.24ZM220.409 116.24C219.577 116.24 218.835 116.075 218.185 115.744C217.545 115.413 217.043 114.944 216.681 114.336C216.329 113.717 216.153 112.997 216.153 112.176C216.153 111.365 216.334 110.651 216.697 110.032C217.059 109.413 217.561 108.933 218.201 108.592C218.851 108.251 219.587 108.08 220.409 108.08C221.23 108.08 221.961 108.251 222.601 108.592C223.251 108.933 223.758 109.413 224.121 110.032C224.483 110.651 224.665 111.365 224.665 112.176C224.665 112.997 224.483 113.717 224.121 114.336C223.769 114.944 223.267 115.413 222.617 115.744C221.977 116.075 221.241 116.24 220.409 116.24ZM220.409 115.264C221.326 115.264 222.057 114.987 222.601 114.432C223.155 113.867 223.433 113.115 223.433 112.176C223.433 111.227 223.155 110.475 222.601 109.92C222.057 109.355 221.326 109.072 220.409 109.072C219.491 109.072 218.755 109.355 218.201 109.92C217.657 110.475 217.385 111.227 217.385 112.176C217.385 113.115 217.657 113.867 218.201 114.432C218.755 114.987 219.491 115.264 220.409 115.264Z" fill="#EDEBEB"/>
</svg>